<svg width="120" height="32" viewBox="0 0 120 32" fill="none" xmlns="http://www.w3.org/2000/svg">
<path fill-rule="evenodd" clip-rule="evenodd" d="M109.167 30.0282C109.244 30.462 109.53 30.9346 110.155 31.2733C110.775 31.6098 111.439 31.6497 111.796 31.6497H117.348C117.705 31.6497 118.369 31.6098 118.989 31.2733C119.736 30.8681 120 30.2713 120 29.7786C120 29.2669 119.72 28.7753 119.195 28.4169C118.742 28.1071 118.233 27.9826 117.903 27.9263L117.852 27.9177V15.795L117.903 15.7865C118.233 15.7301 118.742 15.6056 119.195 15.2959C119.72 14.9375 120 14.4459 120 13.9342C120 13.4415 119.736 12.8447 118.989 12.4394C118.369 12.1029 117.705 12.0631 117.348 12.0631H111.796C111.439 12.0631 110.775 12.1029 110.155 12.4394C109.408 12.8447 109.144 13.4415 109.144 13.9342C109.144 14.4459 109.424 14.9375 109.949 15.2959C110.402 15.6056 110.912 15.7301 111.242 15.7865L111.292 15.795V27.9177L111.242 27.9263C110.912 27.9826 110.402 28.1071 109.949 28.4169C109.526 28.7055 109.263 29.0805 109.176 29.4828L109.333 29.5062C109.605 29.5492 109.748 29.64 109.762 29.7786C109.762 29.786 109.763 29.7936 109.763 29.8013C109.763 29.9526 109.609 30.0282 109.303 30.0282H109.167ZM112.44 29.4154L111.734 29.5062C111.468 29.5516 111.336 29.6424 111.336 29.7786C111.336 29.945 111.489 30.0282 111.796 30.0282H117.348C117.655 30.0282 117.809 29.945 117.809 29.7786C117.809 29.6424 117.676 29.5516 117.41 29.5062L116.704 29.4154C116.275 29.3548 115.988 29.2716 115.845 29.1657C115.84 29.1608 115.834 29.1557 115.829 29.1504C115.741 29.0639 115.688 28.9181 115.669 28.7132C115.664 28.6566 115.661 28.5956 115.661 28.5301V15.1827C115.661 15.1171 115.664 15.0561 115.669 14.9996C115.688 14.7946 115.741 14.6489 115.829 14.5624C115.834 14.5571 115.84 14.552 115.845 14.5471C115.988 14.4412 116.275 14.3579 116.704 14.2974L117.41 14.2066C117.676 14.1612 117.809 14.0704 117.809 13.9342C117.809 13.7677 117.655 13.6845 117.348 13.6845H111.796C111.489 13.6845 111.336 13.7677 111.336 13.9342C111.336 14.0704 111.468 14.1612 111.734 14.2066L112.44 14.2974C112.869 14.3579 113.146 14.4412 113.268 14.5471C113.281 14.5565 113.293 14.5667 113.305 14.5777C113.397 14.6664 113.454 14.8088 113.474 15.0048C113.48 15.0598 113.483 15.1191 113.483 15.1827V28.5301C113.483 28.5936 113.48 28.6529 113.474 28.708C113.454 28.904 113.397 29.0463 113.305 29.1351C113.293 29.1461 113.281 29.1563 113.268 29.1657C113.146 29.2716 112.869 29.3548 112.44 29.4154Z" fill="#F5F5F5"/>
<path fill-rule="evenodd" clip-rule="evenodd" d="M94.6383 29.8014C94.6383 29.9528 94.7917 30.0284 95.0985 30.0284H99.3935C99.6798 30.0284 99.823 29.9452 99.823 29.7787C99.823 29.6551 99.6798 29.5689 99.3935 29.5201C99.3643 29.5151 99.3336 29.5106 99.3014 29.5064L98.8413 29.461C98.764 29.4533 98.6911 29.443 98.6225 29.4299C98.2878 29.3662 98.056 29.2378 97.9271 29.0448C97.8168 28.8795 97.7817 28.667 97.822 28.407C97.8334 28.3336 97.8508 28.2564 97.8742 28.1755C97.8743 28.175 97.8741 28.1759 97.8742 28.1755C97.8877 28.1289 97.9035 28.0799 97.9209 28.0309L98.964 24.9891C99.0987 24.6189 99.4055 24.4228 99.8843 24.401C99.9143 24.3996 99.945 24.3989 99.9764 24.3989H103.198C103.218 24.3989 103.239 24.3992 103.259 24.3998C103.663 24.4109 103.945 24.5337 104.105 24.7681C104.149 24.8332 104.184 24.9068 104.21 24.9891L105.376 28.5076C105.386 28.5405 105.395 28.5724 105.403 28.6034C105.403 28.6038 105.403 28.603 105.403 28.6034C105.409 28.6253 105.414 28.648 105.419 28.6689C105.445 28.7827 105.456 28.8823 105.452 28.9677C105.447 29.0688 105.422 29.15 105.376 29.2113C105.294 29.3475 105.079 29.4307 104.731 29.461L104.149 29.5064C104.116 29.5078 104.086 29.5098 104.057 29.5125C103.77 29.5389 103.627 29.6277 103.627 29.7787C103.627 29.9452 103.77 30.0284 104.057 30.0284H109.303C109.609 30.0284 109.763 29.9528 109.763 29.8014C109.763 29.6501 109.62 29.5517 109.333 29.5064L108.873 29.4383C108.484 29.3777 108.198 29.2642 108.014 29.0978C107.981 29.0681 107.949 29.0344 107.918 28.9966C107.801 28.8562 107.693 28.6597 107.594 28.407C107.583 28.3783 107.571 28.3487 107.56 28.3185C107.548 28.2841 107.535 28.2488 107.523 28.2125L102.676 13.8209C102.635 13.6696 102.564 13.5712 102.461 13.5258C102.379 13.4804 102.287 13.4577 102.185 13.4577C102.103 13.4577 102.011 13.4804 101.909 13.5258C101.827 13.5712 101.766 13.6696 101.725 13.8209L98.0419 24.8099L96.9699 28.0082C96.9214 28.1515 96.8695 28.2845 96.814 28.407C96.7112 28.6344 96.5963 28.8259 96.4693 28.9817C96.4623 28.9903 96.4554 28.9987 96.4484 29.007C96.2853 29.1879 96.0574 29.3159 95.7645 29.3911C95.6899 29.4102 95.611 29.426 95.528 29.4383L95.0678 29.5064C94.7815 29.5517 94.6383 29.6501 94.6383 29.8014ZM94.844 27.6149L99.5873 13.4631C99.6536 13.2291 99.8586 12.637 100.594 12.2287L100.685 12.1785L100.782 12.1355C101.078 12.0039 101.565 11.8363 102.185 11.8363C102.726 11.8363 103.247 11.9565 103.69 12.1827C104.479 12.5711 104.726 13.1639 104.812 13.4575L109.649 27.8192C109.659 27.8496 109.669 27.8778 109.679 27.904L109.792 27.9208C110.143 27.9763 110.676 28.1027 111.146 28.426C111.573 28.7189 111.829 29.0919 111.918 29.4827L111.734 29.5064C111.468 29.5517 111.335 29.6425 111.335 29.7787C111.335 29.7865 111.336 29.7941 111.336 29.8014C111.35 29.9528 111.503 30.0284 111.796 30.0284H111.935C111.856 30.5084 111.52 30.9968 110.863 31.3208C110.259 31.6187 109.63 31.6498 109.303 31.6498H104.057C103.686 31.6498 103.004 31.6035 102.381 31.241C102.084 31.0686 101.872 30.868 101.725 30.6601C101.578 30.868 101.366 31.0686 101.069 31.241C100.446 31.6035 99.764 31.6498 99.3935 31.6498H95.0985C94.7708 31.6498 94.1419 31.6187 93.5379 31.3208C92.777 30.9455 92.447 30.3494 92.447 29.8014C92.447 29.2987 92.7135 28.7978 93.2546 28.426C93.7252 28.1027 94.2583 27.9765 94.6087 27.9209L94.638 27.9163L94.7314 27.9026C94.766 27.827 94.8045 27.7317 94.844 27.6149C94.8441 27.6147 94.8439 27.6151 94.844 27.6149ZM101.719 28.915C101.895 28.6647 102.153 28.4392 102.494 28.2612C102.653 28.1782 102.814 28.1137 102.972 28.0634L102.295 26.0203H100.871L100.191 28.0029C100.43 28.0611 100.698 28.1487 100.956 28.2839C101.249 28.4369 101.523 28.6499 101.719 28.915ZM109.289 28.407C109.295 28.407 109.298 28.407 109.301 28.407L109.289 28.407ZM95.1003 28.407C95.1026 28.407 95.1065 28.407 95.1119 28.407L95.1003 28.407ZM99.4855 23.332C99.4241 23.5893 99.5571 23.7179 99.8843 23.7179H103.259C103.517 23.7179 103.654 23.6382 103.671 23.4787C103.675 23.4357 103.671 23.3868 103.658 23.332L101.694 17.2485H101.541L99.9029 22.0965L99.4855 23.332Z" fill="#F5F5F5"/>
<path fill-rule="evenodd" clip-rule="evenodd" d="M69.4531 27.5435L70.6939 27.3839V4.65509L69.4531 4.49541L69.3948 4.48546C68.9698 4.41289 68.3894 4.26408 67.8884 3.92188C67.3163 3.53108 67.0125 2.99892 67.0125 2.43861C67.0125 1.88646 67.3035 1.24504 68.1052 0.810067C68.7801 0.443862 69.5266 0.38916 69.9927 0.38916H87.6634C88.4187 0.38916 89.3319 0.531464 90.0805 1.04108C90.8279 1.54984 91.096 2.21018 91.1613 2.76512L91.1649 2.79628L91.5847 9.2419C91.6369 9.64612 91.6059 10.2806 91.0213 10.8463C90.3432 11.5024 89.3698 11.6482 88.7152 11.6482C88.1922 11.6482 87.572 11.554 87.0143 11.2625C87.0146 11.2789 87.0148 11.2951 87.0148 11.3109V20.0665C87.0148 20.4321 86.93 20.9341 86.5186 21.4046C86.0574 21.932 85.3561 22.2265 84.637 22.3233L84.6076 22.3272L84.5782 22.3306C83.9052 22.4072 83.076 22.3401 82.3485 21.9285C81.6752 21.5475 81.3742 21.03 81.2336 20.6399L81.2169 20.5935L80.6762 18.6334C80.5723 18.249 80.4617 17.9923 80.3684 17.8334C80.3454 17.7943 80.326 17.7654 80.3112 17.7451C80.2493 17.7337 80.1293 17.7187 79.9325 17.7187H78.8105V26.4094C78.8105 26.7484 78.869 26.9621 78.9266 27.0854C78.9543 27.1445 78.9798 27.1788 78.995 27.1962C78.9974 27.1989 78.9996 27.2014 79.0017 27.2036C79.0533 27.2254 79.1889 27.2741 79.4614 27.3216C79.8419 27.3878 80.39 27.4342 81.1421 27.4342C82.512 27.4342 83.5365 27.186 84.3334 26.7661C84.9419 26.4392 85.6491 25.6717 86.0932 24.029L86.0946 24.0238L86.7314 21.7072L86.7378 21.6865C86.8593 21.297 87.129 20.8215 87.714 20.4464C88.3231 20.0558 89.0396 19.9238 89.6619 19.9238C90.3504 19.9238 91.3284 20.0946 91.978 20.7756C92.5146 21.338 92.5292 21.9545 92.4777 22.3385L91.953 29.2491L91.9501 29.2738C91.8849 29.8288 91.6168 30.4891 90.8694 30.9979C90.1208 31.5075 89.2076 31.6498 88.4523 31.6498H69.9927C69.5266 31.6498 68.7801 31.5951 68.1052 31.2289C67.3035 30.7939 67.0125 30.1525 67.0125 29.6003C67.0125 29.04 67.3163 28.5079 67.8884 28.1171C68.3895 27.7749 68.9698 27.6261 69.3948 27.5535L69.4531 27.5435ZM90.293 22.2068C90.3631 21.7657 90.1527 21.5452 89.6619 21.5452C89.2412 21.5452 88.9782 21.7138 88.873 22.0511L88.2419 24.347C88.1306 24.7587 87.9995 25.141 87.8486 25.4941C87.3338 26.6982 86.5884 27.5611 85.6123 28.0827C85.3872 28.2017 85.1531 28.3098 84.9102 28.407C83.8295 28.8394 82.5734 29.0556 81.1421 29.0556C79.4241 29.0556 78.232 28.848 77.5659 28.4329C77.5529 28.4244 77.54 28.4158 77.5273 28.407C76.9219 27.99 76.6192 27.3241 76.6192 26.4094V16.6421C76.6192 16.5888 76.6245 16.5395 76.6351 16.494C76.6965 16.2295 76.9366 16.0973 77.3555 16.0973H79.9325C79.9501 16.0973 79.9676 16.0974 79.9851 16.0975C80.6324 16.1026 81.1529 16.2015 81.5464 16.3944C81.6274 16.4341 81.7029 16.4777 81.7732 16.5254C82.1206 16.7429 82.407 17.1413 82.6322 17.7207C82.7024 17.9013 82.7667 18.0996 82.825 18.3154L83.3509 20.2222C83.4912 20.6113 83.7892 20.7799 84.245 20.728C84.6306 20.6761 84.8235 20.4556 84.8235 20.0665V11.3109C84.8235 10.9218 84.6306 10.7013 84.245 10.6494C83.7892 10.5975 83.4912 10.7661 83.3509 11.1553L82.825 13.101C82.7736 13.2799 82.7093 13.4457 82.6322 13.5983C82.3947 14.0685 82.0355 14.4141 81.5546 14.6353C81.1274 14.8317 80.6042 14.9299 79.9851 14.9299H77.3555C76.9366 14.9299 76.6965 14.7977 76.6351 14.5332C76.6245 14.4877 76.6192 14.4384 76.6192 14.3851V5.00692C76.6192 4.39326 76.7942 3.93494 77.1441 3.63197C77.2231 3.5635 77.3111 3.50297 77.4081 3.45037C77.9691 3.13906 78.9508 2.9834 80.3532 2.9834C81.8714 2.9834 83.1522 3.19959 84.1956 3.63197C84.598 3.79871 84.965 3.9976 85.2968 4.22864C86.0066 4.70749 86.5734 5.3565 86.9973 6.17566C87.2853 6.73225 87.5074 7.36739 87.6634 8.08109L87.979 9.5209C88.0491 9.85815 88.2945 10.0268 88.7152 10.0268C89.2412 10.0268 89.469 9.80627 89.3989 9.36524L89.3025 7.8849L88.9782 2.90558C88.9081 2.3089 88.4698 2.01056 87.6634 2.01056H69.9927C69.4668 2.01056 69.2038 2.15325 69.2038 2.43861C69.2038 2.67209 69.4317 2.82775 69.8875 2.90558L71.0971 3.06123C71.1125 3.0634 71.1277 3.06558 71.1428 3.06778C71.853 3.17098 72.3111 3.31147 72.5171 3.48928C72.57 3.52841 72.6172 3.57597 72.6586 3.63197C72.8097 3.83583 72.8852 4.15146 72.8852 4.57886V27.4601C72.8852 27.8875 72.8097 28.2031 72.6586 28.407C72.6172 28.463 72.57 28.5105 72.5171 28.5497C72.3111 28.7275 71.853 28.868 71.1428 28.9712C71.1277 28.9734 71.1125 28.9756 71.0971 28.9777L69.8875 29.1334C69.4317 29.2112 69.2038 29.3669 69.2038 29.6003C69.2038 29.8857 69.4668 30.0284 69.9927 30.0284H88.4523C89.2587 30.0284 89.6969 29.7301 89.7671 29.1334L90.293 22.2068ZM85.7276 9.37758L85.5004 8.34063C85.1561 6.76591 84.5041 5.88806 83.8204 5.42679L83.8076 5.41814L83.7949 5.40935C83.1154 4.93611 82.0636 4.60481 80.3532 4.60481C79.7505 4.60481 79.318 4.63898 79.0242 4.68556C78.9462 4.69794 78.8845 4.71016 78.8369 4.72094C78.8231 4.7832 78.8105 4.87618 78.8105 5.00692V13.3085H79.9851C80.177 13.3085 80.288 13.2895 80.3418 13.2763C80.3896 13.2646 80.4057 13.2546 80.4134 13.2496C80.4231 13.2434 80.5695 13.1474 80.6793 12.7718L81.2157 10.787L81.2336 10.7375C81.3742 10.3474 81.6752 9.82995 82.3485 9.44898C83.076 9.03733 83.9052 8.97024 84.5782 9.04685L84.6076 9.0502L84.637 9.05415C85.0164 9.10519 85.3908 9.21129 85.7276 9.37758ZM88.1167 22.0173L88.1157 22.0233C88.1169 22.0074 88.1187 22.0045 88.1167 22.0173Z" fill="#F5F5F5"/>
<path fill-rule="evenodd" clip-rule="evenodd" d="M41.7995 27.5435L43.0403 27.3839V4.65509L41.7995 4.49541L41.7411 4.48546C41.3162 4.41289 40.7358 4.26408 40.2348 3.92188C39.6626 3.53108 39.3589 2.99892 39.3589 2.43861C39.3589 1.88646 39.6499 1.24504 40.4516 0.810067C41.1265 0.443862 41.873 0.38916 42.3391 0.38916H53.3307C55.7246 0.38916 57.9303 0.780862 59.8804 1.61156C61.8082 2.40679 63.3248 3.53072 64.3971 4.95885C65.4795 6.4004 65.9877 8.02788 65.9877 9.79329C65.9877 11.5167 65.4736 13.1093 64.3868 14.5246C63.3152 15.9201 61.8213 17.0254 59.9353 17.8184L59.9188 17.8253L59.9021 17.832C57.9901 18.6037 55.8306 18.9639 53.4884 18.9639H51.1569V27.2275C51.2944 27.2512 51.4573 27.2761 51.6483 27.3016L53.5969 27.5354L53.6175 27.5381C54.0652 27.5984 54.687 27.7467 55.2089 28.1328C55.7812 28.5563 55.9953 29.0878 55.9953 29.5614C55.9953 30.0749 55.7542 30.7169 54.9757 31.1778C54.2905 31.5833 53.5122 31.6498 53.0151 31.6498H42.3391C41.873 31.6498 41.1264 31.5951 40.4516 31.2289C39.6499 30.7939 39.3589 30.1525 39.3589 29.6003C39.3589 29.04 39.6626 28.5079 40.2348 28.1171C40.7358 27.7749 41.3162 27.6261 41.7411 27.5535L41.7995 27.5435ZM49.353 28.407C49.0947 28.1948 48.9656 27.8273 48.9656 27.3044V17.8873C48.9656 17.6874 49.04 17.5425 49.1887 17.4526C49.3102 17.3792 49.4812 17.3425 49.7019 17.3425H53.4884C55.1674 17.3425 56.6791 17.1303 58.0234 16.7059C58.3073 16.6163 58.5838 16.5172 58.8528 16.4086C60.3954 15.7601 61.6051 14.865 62.4816 13.7236C63.3581 12.5821 63.7964 11.272 63.7964 9.79329C63.7964 8.26269 63.3581 6.91368 62.4816 5.74628C61.6051 4.57886 60.3779 3.67088 58.8002 3.02232C58.6633 2.96379 58.5245 2.90781 58.384 2.85436C56.9042 2.29183 55.2198 2.01056 53.3307 2.01056H42.3391C41.8132 2.01056 41.5502 2.15325 41.5502 2.43861C41.5502 2.67209 41.7781 2.82775 42.2339 2.90558L43.4435 3.06123C43.4588 3.0634 43.4741 3.06558 43.4892 3.06778C44.1994 3.17097 44.6575 3.31147 44.8635 3.48928C44.9163 3.52841 44.9635 3.57597 45.005 3.63197C45.1561 3.83583 45.2316 4.15146 45.2316 4.57886V27.4601C45.2316 27.8875 45.1561 28.2031 45.005 28.407C44.9635 28.463 44.9163 28.5105 44.8635 28.5497C44.6575 28.7275 44.1994 28.868 43.4892 28.9712C43.4741 28.9734 43.4588 28.9756 43.4435 28.9777L42.2339 29.1334C41.7781 29.2112 41.5502 29.3669 41.5502 29.6003C41.5502 29.8857 41.8132 30.0284 42.3391 30.0284H53.0151C53.0199 30.0284 53.0246 30.0284 53.0293 30.0284C53.5458 30.0256 53.804 29.8699 53.804 29.5614C53.804 29.328 53.6112 29.1853 53.2255 29.1334L51.2796 28.8999C50.2979 28.7702 49.6668 28.6145 49.3863 28.4329C49.375 28.4246 49.3639 28.4159 49.353 28.407ZM49.6777 15.7212C49.6857 15.7272 49.6937 15.7331 49.7019 15.7389C50.2848 16.1594 51.2139 16.3697 52.4892 16.3697C52.8335 16.3697 53.1666 16.3561 53.4884 16.3289C54.8208 16.2161 55.9613 15.8701 56.9098 15.2907C57.2489 15.0835 57.5635 14.8465 57.8535 14.5797C59.1858 13.3863 59.852 11.7519 59.852 9.67655C59.852 7.54927 59.1858 5.90193 57.8535 4.73452C57.6406 4.54796 57.4134 4.37632 57.1718 4.21957C56.1485 3.55557 54.8681 3.15906 53.3307 3.03006C52.96 2.99896 52.5743 2.9834 52.1737 2.9834C50.7931 2.9834 49.8582 3.19959 49.3688 3.63197C49.1 3.86942 48.9656 4.17208 48.9656 4.53995V14.2295C48.9656 14.8709 49.2029 15.3681 49.6777 15.7212ZM56.1641 13.547C57.0761 12.7301 57.6607 11.5039 57.6607 9.67655C57.6607 7.78313 57.0674 6.55879 56.1793 5.78062C55.3428 5.04768 54.1169 4.60481 52.1737 4.60481C51.7519 4.60481 51.4473 4.63085 51.2381 4.66469C51.2082 4.66952 51.1812 4.67436 51.1569 4.67909V14.2295C51.1569 14.4247 51.1974 14.5218 51.2161 14.5558C51.2293 14.5799 51.2336 14.5794 51.2369 14.5814C51.2683 14.6005 51.5589 14.7483 52.4892 14.7483C54.1809 14.7483 55.3104 14.3322 56.146 13.5634L56.1641 13.547Z" fill="#F5F5F5"/>
<path fill-rule="evenodd" clip-rule="evenodd" d="M25.5474 27.5435L26.7883 27.3839V4.65509L25.5474 4.49541L25.4891 4.48546C25.0641 4.41289 24.4838 4.26408 23.9828 3.92188C23.4106 3.53108 23.1069 2.99892 23.1069 2.43861C23.1069 1.88646 23.3979 1.24504 24.1995 0.810067C24.8744 0.443862 25.6209 0.38916 26.0871 0.38916H35.6061C36.0722 0.38916 36.8187 0.443862 37.4936 0.810067C38.2952 1.24504 38.5863 1.88646 38.5863 2.43861C38.5863 2.99892 38.2825 3.53108 37.7104 3.92188C37.2093 4.26408 36.629 4.41289 36.204 4.48546L36.1457 4.49541L34.9049 4.65509V27.3839L36.1457 27.5435L36.204 27.5535C36.629 27.6261 37.2093 27.7749 37.7104 28.1171C38.2825 28.5079 38.5863 29.04 38.5863 29.6003C38.5863 30.1525 38.2952 30.7939 37.4936 31.2289C36.8187 31.5951 36.0722 31.6498 35.6061 31.6498H26.0871C25.6209 31.6498 24.8744 31.5951 24.1995 31.2289C23.3979 30.7939 23.1069 30.1525 23.1069 29.6003C23.1069 29.04 23.4106 28.5079 23.9828 28.1171C24.4838 27.7749 25.0641 27.6261 25.4891 27.5535L25.5474 27.5435ZM32.9078 28.407C32.7783 28.2031 32.7136 27.8875 32.7136 27.4601V4.57886C32.7136 4.15146 32.7783 3.83583 32.9078 3.63197C32.9433 3.57597 32.9838 3.52841 33.0291 3.48928C33.2694 3.31147 33.745 3.17097 34.4559 3.06778C34.4711 3.06558 34.4863 3.0634 34.5017 3.06123L35.7113 2.90558C36.1671 2.82775 36.395 2.67209 36.395 2.43861C36.395 2.15325 36.132 2.01056 35.6061 2.01056H26.0871C25.5611 2.01056 25.2982 2.15325 25.2982 2.43861C25.2982 2.67209 25.5261 2.82775 25.9819 2.90558L27.1915 3.06123C27.2068 3.0634 27.2221 3.06558 27.2372 3.06778C27.9474 3.17097 28.4055 3.31147 28.6114 3.48928C28.6643 3.52841 28.7115 3.57597 28.753 3.63197C28.9041 3.83583 28.9796 4.15146 28.9796 4.57886V27.4601C28.9796 27.8875 28.9041 28.2031 28.753 28.407C28.7115 28.463 28.6643 28.5105 28.6114 28.5497C28.4055 28.7275 27.9474 28.868 27.2372 28.9712C27.2221 28.9734 27.2068 28.9756 27.1915 28.9777L25.9819 29.1334C25.5261 29.2112 25.2982 29.3669 25.2982 29.6003C25.2982 29.8857 25.5611 30.0284 26.0871 30.0284H35.6061C36.132 30.0284 36.395 29.8857 36.395 29.6003C36.395 29.3669 36.1671 29.2112 35.7113 29.1334L34.5017 28.9777C34.4863 28.9756 34.4711 28.9734 34.4559 28.9712C33.745 28.868 33.2694 28.7275 33.0291 28.5497C32.9838 28.5105 32.9433 28.463 32.9078 28.407Z" fill="#F5F5F5"/>
<path fill-rule="evenodd" clip-rule="evenodd" d="M6.98502 31.8223C6.0755 31.7101 5.19665 31.569 4.34949 31.3981L4.32402 31.3929C3.50371 31.2195 2.73516 31.0074 2.09529 30.7323C1.7485 30.5852 1.38267 30.4 1.06255 30.1631L0.8718 30.022L0.733008 29.8508C0.322373 29.3444 0.2657 28.7836 0.263059 28.4222L0 22.3104V22.2846C0 21.9013 0.0714794 21.3334 0.524942 20.8172C1.08452 20.1802 1.98471 19.8849 2.875 19.8849C3.765 19.8849 4.52801 20.1845 5.04488 20.6434C5.48724 21.0362 5.69149 21.4889 5.79925 21.8426L6.26907 23.3104C6.26911 23.3105 6.26903 23.3103 6.26907 23.3104C6.82238 25.0321 7.56167 26.1343 8.33946 26.7823C9.05019 27.3744 9.83212 27.6287 10.8163 27.6287C12.0358 27.6287 12.7841 27.351 13.325 26.8956L13.3279 26.8932C13.92 26.3966 14.3575 25.5945 14.3575 24.2692C14.3575 23.0392 13.9268 21.9032 13.0459 20.8308L13.0377 20.8208L13.0297 20.8107C12.1755 19.7363 10.7185 18.581 8.52293 17.3669C5.82901 15.9378 3.72337 14.4921 2.33684 13.0135L2.32506 13.0009C0.906539 11.4574 0.157774 9.76846 0.157774 7.96433C0.157774 5.62545 1.27809 3.62697 3.59981 2.14486C5.8846 0.682699 8.73395 0 11.9733 0C13.1972 0 14.3928 0.105811 15.5551 0.320806C16.717 0.535732 17.788 0.861993 18.6952 1.34136C19.0673 1.52904 19.4325 1.77641 19.7203 2.10001C20.1631 2.55409 20.3135 3.06147 20.3177 3.50863L20.4756 9.38803V9.40413C20.4756 9.78556 20.3878 10.3688 19.854 10.8852C19.2353 11.4839 18.3474 11.6871 17.6006 11.6871C16.7927 11.6871 16.0872 11.4312 15.5872 11.0328C15.1476 10.6824 14.9295 10.2761 14.8099 9.96631L14.8067 9.95806L14.4418 8.99347C14.4412 8.99212 14.4407 8.99078 14.4402 8.98943C13.6875 7.04091 12.9589 5.79359 12.3223 5.10665L12.3022 5.08489L12.2829 5.06265C11.8936 4.61168 11.4279 4.41021 10.6059 4.41021C9.63436 4.41021 9.03927 4.6239 8.59795 4.96979C8.19728 5.30852 7.85365 5.89575 7.85365 6.95257C7.85365 7.6897 8.16808 8.42815 8.91495 9.19788C9.71933 10.0269 11.2495 11.1486 13.6578 12.5742L13.6716 12.5824C16.4096 14.2301 18.5225 15.8942 19.8916 17.5871C21.3212 19.285 22.0533 21.133 22.0533 23.1017C22.0533 24.8032 21.5365 26.3694 20.4302 27.7446C19.3475 29.0905 17.8461 30.1489 15.9677 30.907L15.952 30.9134C14.082 31.6534 11.9819 32 9.71188 32C8.86897 32 7.96149 31.9379 6.99906 31.824L6.98502 31.8223ZM18.0213 18.4321C16.8292 16.9534 14.9184 15.4228 12.2889 13.8403C9.83459 12.3875 8.11661 11.1552 7.1349 10.1435C6.15319 9.13174 5.66234 8.0681 5.66234 6.95257C5.66234 6.10449 5.84241 5.37899 6.20255 4.77608C6.25482 4.68857 6.31088 4.60365 6.37074 4.52132C6.37126 4.5206 6.37178 4.51988 6.37231 4.51916C6.5431 4.28459 6.7447 4.071 6.97713 3.87839C7.88871 3.15201 9.09831 2.78881 10.6059 2.78881C11.0994 2.78881 11.5552 2.83659 11.9733 2.93215C12.3251 3.01254 12.6502 3.12676 12.9487 3.2748C13.4045 3.50089 13.7981 3.80585 14.1296 4.1897C14.7865 4.89862 15.4221 5.93964 16.0364 7.31275C16.2089 7.69833 16.3797 8.11009 16.5488 8.54803L16.9169 9.52088C17.0571 9.88407 17.285 10.0657 17.6006 10.0657C18.0564 10.0657 18.2843 9.84516 18.2843 9.40413L18.1265 3.52817C18.1265 3.32063 18.0564 3.15201 17.9161 3.02229C17.811 2.89258 17.6532 2.77584 17.4428 2.67207C16.8117 2.33482 16.0053 2.07539 15.0236 1.8938C14.576 1.811 14.1211 1.74708 13.659 1.70203C13.1075 1.64828 12.5456 1.6214 11.9733 1.6214C11.5038 1.6214 11.048 1.63776 10.6059 1.67048C8.71331 1.81055 7.07286 2.2505 5.68458 2.99032C5.67505 2.9954 5.66553 3.0005 5.65601 3.00561C5.44172 3.12073 5.23346 3.24303 5.03124 3.37252C4.79981 3.52026 4.58334 3.67452 4.38186 3.8353C3.02668 4.91672 2.34908 6.29306 2.34908 7.96433C2.34908 9.41711 2.94512 10.7921 4.13719 12.0892C5.32926 13.3604 7.22255 14.6834 9.81706 16.0584C12.1661 17.3555 13.8666 18.6656 14.9184 19.9886C16.0053 21.3117 16.5488 22.7385 16.5488 24.2692C16.5488 25.2717 16.3377 26.1336 15.9156 26.8551C15.6713 27.2724 15.3565 27.6427 14.971 27.966C14.7348 28.1649 14.4786 28.3407 14.2026 28.4934C14.1993 28.4952 14.1959 28.4971 14.1926 28.4989C13.2825 28.9997 12.1571 29.2501 10.8163 29.2501C10.4339 29.2501 10.0658 29.2246 9.71188 29.1736C9.07457 29.0817 8.4834 28.9072 7.93832 28.6499C6.43783 27.9416 5.28681 26.6066 4.48531 24.6448C4.36084 24.3401 4.2448 24.0203 4.13719 23.6854L3.66387 22.2067C3.52362 21.7398 3.26067 21.5063 2.875 21.5063C2.4192 21.5063 2.19131 21.7657 2.19131 22.2846L2.45427 28.394C2.45427 28.6794 2.50686 28.8869 2.61204 29.0166C2.75228 29.1204 2.94512 29.2242 3.19055 29.3279C3.61128 29.5095 4.18978 29.6782 4.92606 29.8338C5.64812 29.9795 6.40088 30.1025 7.18439 30.2027C7.23787 30.2096 7.2915 30.2163 7.34527 30.2229C8.22179 30.3267 9.01066 30.3786 9.71188 30.3786C10.0884 30.3786 10.4565 30.3676 10.8163 30.3457C12.3325 30.2532 13.6999 29.9658 14.9184 29.4836C15.4066 29.2866 15.8614 29.0662 16.2828 28.8224C16.2838 28.8219 16.2847 28.8213 16.2856 28.8208C16.8448 28.4971 17.3452 28.1322 17.7869 27.7262C18.0634 27.472 18.3168 27.2017 18.5472 26.9153C19.4238 25.8257 19.862 24.5545 19.862 23.1017C19.862 21.4414 19.2485 19.8849 18.0213 18.4321ZM16.0926 9.40621L16.0927 9.4118C16.0925 9.41442 16.0922 9.41238 16.0926 9.40621Z" fill="#F5F5F5"/>
</svg>
