<?xml version="1.0" standalone="no"?>
<!DOCTYPE svg PUBLIC "-//W3C//DTD SVG 20010904//EN"
 "http://www.w3.org/TR/2001/REC-SVG-20010904/DTD/svg10.dtd">
<svg version="1.0" xmlns="http://www.w3.org/2000/svg"
 width="700.000000pt" height="700.000000pt" viewBox="0 0 700.000000 700.000000"
 preserveAspectRatio="xMidYMid meet">
<metadata>
Created by potrace 1.14, written by Peter Selinger 2001-2017
</metadata>
<g transform="translate(0.000000,700.000000) scale(0.100000,-0.100000)"
fill="#000000" stroke="none">
<path d="M3323 6693 c-297 -44 -571 -208 -756 -453 -104 -136 -185 -319 -212
-480 -30 -175 -27 -345 11 -493 153 -602 736 -982 1339 -873 422 76 771 380
903 786 42 127 52 196 56 355 2 105 -1 132 -25 254 -89 442 -462 809 -911 896
-111 22 -291 26 -405 8z m275 -577 c201 -32 383 -187 450 -381 11 -33 23 -77
27 -98 7 -45 8 -151 0 -187 -2 -14 -8 -38 -11 -55 -10 -49 -61 -153 -96 -198
-129 -165 -286 -240 -487 -233 -184 7 -324 78 -444 227 -110 136 -150 365 -93
527 99 280 368 444 654 398z"/>
<path d="M878 4657 c-2 -7 -4 -729 -4 -1605 l1 -1593 135 -4 c74 -2 160 -7
190 -10 91 -9 154 -16 180 -20 14 -2 45 -6 70 -10 517 -73 1094 -294 1530
-585 134 -89 165 -112 250 -177 73 -56 189 -155 231 -195 15 -16 32 -28 37
-28 9 0 29 16 92 74 28 25 142 118 195 159 285 218 608 400 940 530 168 66
257 94 435 141 170 44 319 73 465 91 28 3 66 8 85 11 61 8 151 14 285 19 l130
4 0 1603 0 1603 -105 -2 c-101 -1 -258 -10 -310 -18 -14 -2 -50 -7 -80 -10
-136 -16 -385 -66 -542 -111 -123 -34 -331 -104 -343 -115 -5 -5 -15 -9 -23
-9 -7 0 -32 -8 -55 -19 -23 -10 -67 -29 -97 -42 -175 -76 -468 -240 -620 -347
-73 -52 -262 -193 -270 -201 -3 -4 -34 -31 -70 -61 -35 -30 -74 -65 -86 -77
l-21 -23 -95 83 c-125 109 -128 111 -238 193 -412 309 -925 548 -1415 659 -46
11 -216 45 -240 49 -278 43 -630 66 -637 43z m760 -662 c495 -119 948 -347
1330 -670 109 -92 114 -96 258 -232 231 -217 269 -253 276 -253 3 0 24 17 45
38 22 20 75 70 119 111 43 41 113 106 154 145 121 114 171 157 245 216 39 30
72 57 75 60 16 19 192 138 290 198 231 140 497 259 739 332 80 24 274 73 334
84 l37 7 0 -63 c1 -81 1 -1522 0 -1774 l0 -192 -57 -7 c-32 -4 -66 -9 -78 -11
-22 -5 -106 -21 -145 -28 -14 -2 -36 -7 -50 -10 -14 -3 -65 -15 -115 -26 -426
-99 -934 -309 -1290 -535 -27 -17 -57 -34 -65 -38 -8 -4 -66 -42 -128 -86
l-113 -79 -111 78 c-236 165 -574 348 -838 455 -105 42 -323 121 -360 130 -8
2 -63 17 -121 34 -95 28 -276 71 -354 85 -28 6 -47 9 -105 21 -30 6 -120 18
-137 18 -7 0 -13 12 -14 26 0 28 0 1968 1 1989 0 18 17 16 178 -23z"/>
</g>
</svg>
